<svg width="193" height="48" viewBox="0 0 193 48" fill="none" xmlns="http://www.w3.org/2000/svg">
<g clip-path="url(#clip0_197_749)">
<g clip-path="url(#clip1_197_749)">
<path d="M55.6622 19.7432C57.7826 19.7432 59.5623 20.4925 60.8876 21.7941V20.2165H66.3781V36.5451H60.9633V34.6914H60.8876C59.7138 36.0324 57.8584 37.0184 55.6622 37.0184C51.0047 37.0184 47.7483 33.1532 47.7483 28.3808C47.7483 23.6084 51.0047 19.7432 55.6622 19.7432ZM57.2904 32.2066C59.4108 32.2066 60.9633 30.6289 60.9633 28.3808C60.9633 26.1326 59.3351 24.5156 57.2904 24.5156C55.2078 24.5156 53.5796 26.0932 53.5796 28.3808C53.5796 30.6289 55.0563 32.2066 57.2904 32.2066Z" fill="#004876"/>
<path d="M77.056 32.2464H84.3262V36.5455H67.8547L75.7307 24.5159H69.18V20.2168H84.932L77.056 32.2464Z" fill="#004876"/>
<path d="M90.9906 29.1696C90.9906 31.6939 93.0353 32.5221 94.4363 32.5221C96.216 32.5221 96.9733 32.1672 98.2986 30.7078L102.274 32.7588C100.495 35.8352 97.5791 37.0184 94.0198 37.0184C89.2109 37.0184 85.2729 33.1532 85.2729 28.3808C85.2729 23.6084 89.2109 19.7432 94.0198 19.7432C98.8666 19.7432 102.54 22.6618 102.54 28.3808C102.54 28.6174 102.54 28.9724 102.502 29.1302H90.9906V29.1696ZM97.1626 26.0538C96.8976 24.3183 95.7616 23.4112 94.1713 23.4112C92.278 23.4112 91.2178 24.555 91.142 26.0538H97.1626Z" fill="#004876"/>
<path d="M103.978 20.2165H109.469V22.5829H109.545C109.545 22.5829 111.286 19.7432 114.429 19.7432C116.474 19.7432 117.913 20.7686 117.913 20.7686L115.603 25.541C115.603 25.541 114.581 24.6339 112.763 24.6339C109.923 24.6339 109.507 27.5131 109.507 27.9469V36.5451H104.016V20.2165H103.978Z" fill="#004876"/>
<path d="M121.359 16.7452C121.397 11.9728 123.631 8.69922 127.606 8.69922C130.408 8.69922 132.15 10.1585 132.15 10.1585L130.219 14.1421C130.219 14.1421 129.462 13.7083 128.591 13.7083C127.19 13.7083 126.887 14.6548 126.887 16.903V20.2161H130.56V24.5152H126.849V36.5447H121.359V24.5152H119.049V20.2161H121.359V16.7452Z" fill="#004876"/>
<path d="M139.155 9.17285H133.665V36.5451H139.155V9.17285Z" fill="#004876"/>
<path d="M150.023 19.7432C155.286 19.7432 159.527 23.2929 159.527 28.3808C159.527 33.3898 155.513 37.0184 150.023 37.0184C144.305 37.0184 140.443 33.4293 140.443 28.3808C140.443 23.2929 144.646 19.7432 150.023 19.7432ZM149.985 32.2066C152.105 32.2066 153.658 30.6289 153.658 28.3808C153.658 26.1326 152.03 24.5156 149.985 24.5156C147.902 24.5156 146.274 26.0932 146.274 28.3808C146.274 30.6289 147.751 32.2066 149.985 32.2066Z" fill="#004876"/>
<path d="M168.653 19.7432C170.773 19.7432 172.553 20.4925 173.878 21.7941V20.2165H179.368V36.5451H173.954V34.6914H173.878C172.704 36.0324 170.849 37.0184 168.653 37.0184C163.995 37.0184 160.739 33.1532 160.739 28.3808C160.777 23.6084 164.033 19.7432 168.653 19.7432ZM170.319 32.2066C172.477 32.2066 173.992 30.6289 173.992 28.3808C173.992 26.1326 172.363 24.5156 170.319 24.5156C168.236 24.5156 166.608 26.0932 166.608 28.3808C166.608 30.6289 168.085 32.2066 170.319 32.2066Z" fill="#004876"/>
<path d="M183.534 14.1426H189.024V20.2165H192.357V24.5156H189.024V29.6824C189.024 31.2206 189.403 31.9306 190.274 31.9306C190.993 31.9306 191.637 31.4178 191.637 31.4178L193 35.9536C193 35.9536 191.221 36.9791 188.987 36.9791C184.632 36.9791 183.572 33.6266 183.572 30.7473V24.5156H181.262V20.2165H183.572V14.1426H183.534Z" fill="#004876"/>
<path d="M32.4507 16.0751L31.8448 9.48839L0 -1.2002L4.0516 44.0784L14.2753 41.5541L11.3596 9.01509L32.4507 16.0751Z" fill="#004876"/>
<path d="M39.9101 40.5288L37.9411 17.9289L32.4506 16.0752L34.2303 36.5846L14.2753 41.5542L14.7675 46.7999L39.9101 40.5288Z" fill="#FF671D"/>
</g>
</g>
<defs>
<clipPath id="clip0_197_749">
<rect width="193" height="48" fill="white"/>
</clipPath>
<clipPath id="clip1_197_749">
<rect width="193" height="48" fill="white" transform="translate(0 -1.2002)"/>
</clipPath>
</defs>
</svg>
